<svg xmlns="http://www.w3.org/2000/svg" width="24.277" height="19.421" viewBox="0 0 24.277 19.421">
    <g data-name="car [#648]" style="opacity:.5">
        <path data-name="car-[#648]" d="M25.849 5214.352h-1.154c-.668-1.214-1.517-1.232-2.592-1.232-.428 0-1.109.069-1.109.205v-1.4h4.855zm-3.852 3.6a1.215 1.215 0 1 1 1.214-1.214 1.215 1.215 0 0 1-1.211 1.219zm-8.287-8.46h4.855v-6.069h-4.854zm0 4.855h4.855v-2.428h-4.854zm-3.852 3.6a1.215 1.215 0 1 1 1.214-1.214 1.215 1.215 0 0 1-1.213 1.224zm-2.7-3.6h-.73v-2.428h4.855v1.409c0-.138-.889-.213-1.318-.213-1.074 0-2.135.019-2.8 1.232zm-.736-4.855h4.855v-6.069H6.428zm14.566 0V5201H4v15.78h2.218a3.4 3.4 0 0 0 3.642 3.642 3.4 3.4 0 0 0 3.642-3.642h4.855a3.4 3.4 0 0 0 3.643 3.641 3.4 3.4 0 0 0 3.642-3.642h2.638v-7.279z" transform="translate(-4 -5201)" style="fill:#4d4d4d;fill-rule:evenodd"/>
    </g>
</svg>
