<svg xmlns="http://www.w3.org/2000/svg" width="20" height="20" viewBox="0 0 20 20">
    <g data-name="car_front_view [#616]">
        <path data-name="car_front_view-[#616]" d="M89 5335a1 1 0 1 1 1-1 1 1 0 0 1-1 1m10-2a1 1 0 1 1-1 1 1 1 0 0 1 1-1m-8.4-12h6.8a1 1 0 0 1 .99.859l1.304 9.141H88.306l1.306-9.141a1 1 0 0 1 .99-.858m13.4 7a1 1 0 0 0-1-1h-1.857l-.9-6.283a2 2 0 0 0-1.98-1.717h-8.53a2 2 0 0 0-1.98 1.717l-.9 6.283H85a1 1 0 0 0 0 2h1.571l-.285 2H86a2 2 0 0 0-2 2v2a2 2 0 0 0 2 2v1a1 1 0 0 0 1 1h2a1 1 0 0 0 1-1v-1h8v1a1 1 0 0 0 1 1h2a1 1 0 0 0 1-1v-1a2 2 0 0 0 2-2v-2a2 2 0 0 0-2-2h-.286l-.285-2H103a1 1 0 0 0 1-1" transform="translate(-84 -5319)"/>
    </g>
</svg>
